<?xml version="1.0" encoding="UTF-8" standalone="no"?>
<svg
   viewBox="0 0 2406 2406"
   version="1.1"
   id="svg5"
   sodipodi:docname="ChatGPT_logo.svg"
   inkscape:version="1.3.2 (091e20ef0f, 2023-11-25, custom)"
   xmlns:inkscape="http://www.inkscape.org/namespaces/inkscape"
   xmlns:sodipodi="http://sodipodi.sourceforge.net/DTD/sodipodi-0.dtd"
   xmlns:xlink="http://www.w3.org/1999/xlink"
   xmlns="http://www.w3.org/2000/svg"
   xmlns:svg="http://www.w3.org/2000/svg">
  <defs
     id="defs5" />
  <sodipodi:namedview
     id="namedview5"
     pagecolor="#ffffff"
     bordercolor="#000000"
     borderopacity="0.25"
     inkscape:showpageshadow="2"
     inkscape:pageopacity="0.0"
     inkscape:pagecheckerboard="0"
     inkscape:deskcolor="#d1d1d1"
     inkscape:zoom="0.19617623"
     inkscape:cx="402.69915"
     inkscape:cy="1149.4767"
     inkscape:window-width="1629"
     inkscape:window-height="693"
     inkscape:window-x="0"
     inkscape:window-y="0"
     inkscape:window-maximized="1"
     inkscape:current-layer="svg5" />
  <path
     id="a"
     d="M1107.3 299.1c-197.999 0-373.9 127.3-435.2 315.3L650 743.5v427.9c0 21.4 11 40.4 29.4 51.4l344.5 198.515V833.3h.1v-27.9L1372.7 604c33.715-19.52 70.44-32.857 108.47-39.828L1447.6 450.3C1361 353.5 1237.1 298.5 1107.3 299.1zm0 117.5-.6.6c79.699 0 156.3 27.5 217.6 78.4-2.5 1.2-7.4 4.3-11 6.1L952.8 709.3c-18.4 10.4-29.4 30-29.4 51.4V1248l-155.1-89.4V755.8c-.1-187.099 151.601-338.9 339-339.2z"
     fill="#fff" />
  <use
     xlink:href="#a"
     transform="rotate(60 1203 1203)"
     id="use1" />
  <use
     xlink:href="#a"
     transform="rotate(120 1203 1203)"
     id="use2" />
  <use
     xlink:href="#a"
     transform="rotate(180 1203 1203)"
     id="use3" />
  <use
     xlink:href="#a"
     transform="rotate(240 1203 1203)"
     id="use4" />
  <use
     xlink:href="#a"
     transform="rotate(300 1203 1203)"
     id="use5" />
  <path
     style="fill:#1a1a1a;stroke-width:10.1949"
     d="m 1208.0975,2090.9156 c -80.022,-18.0182 -129.5868,-41.5692 -194.1152,-92.235 -56.09199,-44.0418 -56.94174,-44.3127 -122.49124,-39.051 -73.53161,5.9025 -165.61949,-13.2391 -235.70495,-48.9941 -55.57273,-28.351 -146.32376,-114.68 -178.7879,-170.0759 -56.88961,-97.0747 -79.38554,-237.4407 -53.17892,-331.816 9.64075,-34.7184 8.13791,-42.4462 -13.87826,-71.3644 -63.43602,-83.3232 -90.60521,-168.755 -89.86149,-282.5637 0.81684,-124.99767 48.09204,-232.39521 141.83807,-322.22102 46.00436,-44.08056 156.06303,-105.60719 188.90988,-105.60719 9.23092,0 31.48775,-29.80123 53.40126,-71.50272 91.67674,-174.46116 286.96259,-276.84658 467.93545,-245.33151 87.304,15.20332 151.127,43.44162 219.8535,97.27338 56.0626,43.91246 56.9761,44.20289 122.4912,38.94397 73.5316,-5.90241 165.6196,13.23916 235.705,48.99409 55.5727,28.35109 146.3238,114.67996 178.7879,170.07585 56.8896,97.07476 79.3855,237.44077 53.179,331.81611 -9.7656,35.16734 -8.2193,42.33304 15.981,74.06134 56.1723,73.6457 80.4494,144.9516 84.7493,248.9237 6.138,148.4135 -33.5703,247.5265 -142.1886,354.9061 -42.7943,42.3063 -152.7661,103.8651 -185.55,103.8651 -9.216,0 -31.3687,29.5747 -53.0314,70.7988 -65.7849,125.189 -191.8861,218.8755 -329.8119,245.0324 -67.4311,12.7881 -92.6729,12.1844 -164.2317,-3.9283 z m 235.0407,-130.2459 c 66.9135,-30.8073 132.4559,-94.2807 164.4723,-159.2805 22.4243,-45.5258 23.7307,-60.3321 26.7441,-303.1128 l 3.1681,-255.2491 -75.0708,-42.9522 c -41.2889,-23.6237 -77.6019,-42.9522 -80.6955,-42.9522 -3.0936,0 -3.7219,108.9581 -1.396,242.1292 3.263,186.8258 1.1777,247.7699 -9.1293,266.825 -8.3022,15.3484 -82.4726,64.397 -195.9578,129.586 -100.4297,57.6896 -186.4959,108.7866 -191.2581,113.5489 -10.0825,10.0823 57.6325,50.287 118.0227,70.0741 63.2027,20.7085 174.3224,12.1285 241.1003,-18.6164 z M 975.78069,1829.9533 C 1005.4289,1818.7202 1107.6775,1764.2334 1203,1708.8716 l 173.3136,-100.6579 2.9313,-93.0114 c 1.6122,-51.1564 -0.8078,-93.0116 -5.3778,-93.0116 -4.57,0 -17.9535,6.7552 -29.741,15.0116 -68.3582,47.8799 -395.8319,229.6663 -413.72554,229.6663 -11.73814,0 -105.01007,-48.1709 -207.27096,-107.0466 -102.26089,-58.8756 -189.15124,-107.0466 -193.08967,-107.0466 -3.93842,0 -5.45629,35.5548 -3.37304,79.0106 7.16007,149.3565 97.90531,264.7468 243.04921,309.0575 50.29839,15.3556 150.81303,10.0436 206.06459,-10.8902 z m 824.45101,-183.8975 c 95.7948,-48.8708 169.6649,-161.2534 179.8541,-273.6214 9.4316,-104.0135 -38.5022,-223.099 -114.0961,-283.4571 -42.9123,-34.2635 -390.6582,-237.70188 -406.3139,-237.70188 -20.048,0 -160.2221,85.24701 -152.3184,92.63259 4.2827,4.00193 101.8348,60.97649 216.7824,126.61019 114.9477,65.6338 212.3663,124.5862 216.4859,131.0054 4.1196,6.4192 7.5603,113.7479 7.6462,238.5082 0.086,124.7603 2.6327,226.8368 5.6597,226.8368 3.027,0 23.862,-9.3657 46.3001,-20.8128 z m -768.398,-133.2962 c 41.8121,-23.0807 72.197,-45.5413 67.5221,-49.9124 -4.6749,-4.3711 -102.54796,-61.7722 -217.49563,-127.5581 -114.94767,-65.7859 -212.36629,-124.7572 -216.48583,-131.0474 -4.11955,-6.2901 -7.56033,-113.5132 -7.64619,-238.27348 -0.0859,-124.76028 -2.63274,-226.83686 -5.65972,-226.83686 -19.13448,0 -93.55712,48.08614 -128.49356,83.02258 -135.81772,135.81773 -127.74041,379.64986 16.39326,494.86876 39.55844,31.6226 392.18835,237.7019 406.74047,237.7019 5.0068,0 43.31312,-18.8843 85.1251,-41.965 z m 269.3569,-152.5046 90.4153,-51.7407 V 1203 1097.4857 l -90.4153,-51.7407 c -49.7285,-28.4574 -93.8675,-51.74076 -98.0867,-51.74076 -4.2192,0 -48.405,23.50876 -98.1906,52.24176 l -90.5192,52.2418 v 104.4592 104.4592 l 89.2055,52.0149 c 49.063,28.6082 93.2488,52.1408 98.1905,52.2947 4.9418,0.154 49.672,-23.0034 99.4005,-51.4608 z M 925.63959,1006.7479 c -3.26449,-186.91375 -1.18263,-247.69842 9.12935,-266.55097 8.13113,-14.86552 84.86976,-65.6329 196.11226,-129.74056 100.5148,-57.92537 186.9566,-109.52131 192.093,-114.65764 5.6551,-5.65511 -18.0911,-22.84246 -60.2008,-43.573 -62.4214,-30.72997 -78.4318,-34.2342 -156.4107,-34.2342 -72.2994,0 -96.2767,4.43656 -142.94321,26.44894 -67.76791,31.96583 -133.1264,95.39968 -165.02999,160.17028 -22.42343,45.524 -23.73077,60.33635 -26.74324,303.00333 l -3.16728,255.13952 74.53169,43.0193 c 40.99244,23.6606 77.30507,43.0384 80.69474,43.0617 3.38967,0.023 4.26005,-108.9156 1.93418,-242.0867 z M 1244.1988,861.47034 c 115.2818,-67.28644 219.731,-122.33898 232.1092,-122.33898 12.3783,0 102.2658,46.2737 199.7502,102.83044 97.4845,56.55674 183.9849,105.41697 192.2231,108.57828 25.9135,9.9439 13.006,-143.59437 -17.2778,-205.52535 -53.1438,-108.68021 -159.3112,-179.08079 -282.2197,-187.1426 -98.8655,-6.48477 -137.0245,7.90979 -355.8627,134.24056 l -183.2347,105.77764 -2.9313,92.95949 c -1.6122,51.12773 -0.5077,92.9595 2.4545,92.9595 2.9622,0 99.7073,-55.05254 214.9892,-122.33898 z"
     id="path5" />
  <path
     style="fill:#f9f9f9;stroke-width:10.1949"
     d=""
     id="path15" />
  <path
     style="fill:#f9f9f9;stroke-width:10.1949"
     d=""
     id="path16" />
  <path
     style="fill:#f9f9f9;stroke-width:10.1949"
     d=""
     id="path17" />
  <path
     style="fill:#f9f9f9;stroke-width:10.1949"
     d=""
     id="path18" />
  <path
     style="fill:#d3c6aa;fill-opacity:1;stroke-width:3.60445"
     d="m 1254.3475,2098.0039 c -97.7145,-16.5798 -158.1016,-41.4023 -228.8824,-94.0836 -68.71756,-51.1457 -55.13647,-46.665 -142.37562,-46.972 -65.24737,-0.2295 -80.65718,-1.4005 -111.6618,-8.4851 -98.72089,-22.5578 -157.76578,-57.4016 -235.76401,-139.1301 -35.98456,-37.7055 -59.66793,-71.162 -76.02607,-107.3989 -15.03974,-33.3162 -31.05392,-86.5089 -37.54908,-124.7228 -7.46987,-43.9484 -7.45035,-116.6349 0.0402,-149.8504 12.7528,-56.5499 12.82213,-56.1639 -18.45546,-102.7564 -31.35371,-46.706 -43.69805,-69.815 -56.78395,-106.3016 -18.07901,-50.4085 -22.42777,-80.8576 -22.39332,-156.7934 0.0277,-60.9922 1.11092,-74.57648 8.19164,-102.72674 21.55717,-85.70304 56.09918,-147.07916 117.85342,-209.40845 51.73075,-52.2125 137.74469,-105.77996 188.94157,-117.66842 16.61204,-3.85749 21.53937,-7.0833 33.09646,-21.6675 7.46826,-9.42439 20.46067,-29.6994 28.87204,-45.05558 28.14897,-51.39007 50.81845,-81.70013 91.14129,-121.8598 133.84573,-133.30409 306.00099,-170.15394 480.28949,-102.80601 35.5331,13.73058 78.4936,39.11394 122.039,72.1072 48.8835,37.03773 42.6142,35.31192 135.1668,37.20848 76.0427,1.55825 83.6849,2.3461 122.5512,12.63402 81.949,21.69194 127.34,47.42163 192.098,108.8898 65.6754,62.33906 97.2345,110.44095 120.7898,184.10578 17.8607,55.85599 23.7115,93.00605 23.8214,151.256 0.078,41.14062 -1.5839,59.63219 -7.8069,86.88101 -9.7422,42.65921 -8.7721,46.68101 21.3952,88.69381 52.1466,72.6223 73.1914,138.0324 77.5398,241.0038 5.6116,132.8873 -26.7302,223.3538 -115.4346,322.893 -46.9159,52.6465 -132.0128,108.2028 -195.1913,127.4323 -22.1679,6.7472 -26.8926,9.802 -38.1859,24.6892 -7.0883,9.3441 -19.8581,29.5009 -28.3773,44.7929 -28.3245,50.8423 -48.4937,77.9113 -86.6927,116.3496 -71.137,71.5826 -154.2389,116.1112 -250.9219,134.4516 -44.0834,8.3625 -79.3475,9.7241 -111.325,4.2983 z m 104.529,-111.8654 c 17.842,-2.9092 41.3583,-7.9511 52.2585,-11.2043 87.1651,-26.0148 180.5034,-114.9638 208.81,-198.9906 10.8708,-32.2693 13.923,-92.847 16.6557,-330.5604 l 2.3618,-205.4535 -66.1518,-36.6081 c -82.0189,-45.3888 -89.6709,-49.2099 -92.6191,-46.2508 -1.3026,1.3074 -1.872,103.2075 -1.2652,226.4448 1.2195,247.695 -0.12,271.0596 -16.524,288.2084 -20.5385,21.4711 -78.4132,57.975 -257.3316,162.3094 -118.0917,68.8639 -121.8346,71.2807 -121.8899,78.7064 -0.1245,16.7002 84.4384,61.4319 138.7266,73.383 29.3246,6.4556 97.425,6.4634 136.969,0.016 z M 908.32061,1847.1389 c 46.26711,-6.6046 68.08021,-14.0307 122.48279,-41.6981 64.8229,-32.967 119.3822,-63.3412 248.6891,-138.4504 l 97.4062,-56.5793 3.0621,-67.8855 c 1.6842,-37.3371 1.9513,-79.7399 0.5936,-94.2285 -2.9594,-31.5811 -5.1049,-32.3599 -36.3078,-13.1787 -59.9171,36.8327 -91.2996,55.55 -143.9658,85.8646 -131.1743,75.504 -258.97114,142.4692 -271.88916,142.4692 -10.54196,0 -103.70184,-48.6312 -225.5245,-117.728 -148.20051,-84.0581 -170.43293,-95.8408 -175.23687,-92.8718 -3.00191,1.8553 -3.61438,18.7523 -2.19764,60.6293 3.781,111.7606 31.56353,179.5017 100.93172,246.0979 43.79002,42.0402 102.24985,74.3814 155.31027,85.9208 26.55911,5.776 91.7531,6.6195 126.64599,1.6385 z m 872.45889,-189.3271 c 128.6754,-56.9064 215.7156,-207.6649 199.9985,-346.4088 -11.6304,-102.6681 -62.2528,-190.7501 -138.9057,-241.6933 -61.3319,-40.7608 -307.83,-185.05632 -359.417,-210.39609 l -24.2035,-11.88884 -37.0721,18.5394 c -20.3896,10.1967 -51.6701,28.25429 -69.5121,40.12799 -45.4526,30.24833 -47.3811,31.97832 -43.1402,38.70152 1.9572,3.10274 57.0694,36.51009 122.4716,74.23852 143.79,82.9478 289.6686,169.5964 301.0706,178.8292 7.7845,6.3034 8.5231,10.3396 11.0644,60.4558 1.4976,29.5358 2.8409,110.4715 2.9849,179.8571 0.3252,156.6015 3.2807,228.8824 9.3589,228.8824 2.4186,0 13.8044,-4.1602 25.3017,-9.2449 z M 996.79208,1533.4622 c 45.98552,-23.4448 91.99302,-52.1043 100.74052,-62.7544 4.8989,-5.9643 4.4898,-7.225 -4.531,-13.9599 -5.4539,-4.072 -82.4893,-49.4677 -171.18977,-100.8794 -88.70046,-51.4117 -182.35956,-106.64 -208.13135,-122.7296 l -46.85781,-29.2537 -2.63295,-36.0444 c -1.44812,-19.8245 -3.8915,-123.9133 -5.42974,-231.30844 -1.53824,-107.39518 -3.89424,-196.3614 -5.23556,-197.70268 -7.57091,-7.57093 -84.21237,38.53752 -123.03543,74.01962 -134.46148,122.89019 -140.87151,360.6131 -13.11548,486.401 24.27155,23.8976 88.21072,64.9463 228.74699,146.8546 140.72456,82.018 190.07437,108.7618 201.22066,109.0461 3.6193,0.092 25.87221,-9.6677 49.45092,-21.6888 z m 253.64372,-143.5026 c 25.9408,-13.6322 68.2511,-36.9577 94.0229,-51.8343 l 46.8578,-27.0486 0.9469,-107.6624 0.9469,-107.6625 -67.6292,-38.3706 c -108.7197,-61.68415 -117.0818,-65.84686 -127.1382,-63.29011 -7.9285,2.01575 -94.4434,49.54531 -163.0655,89.58491 l -24.3301,14.196 0.076,105.2711 0.076,105.2711 60.2981,34.9591 c 55.3893,32.1132 126.6895,71.1369 130.2776,71.3029 0.8222,0.038 22.7192,-11.0844 48.66,-24.7166 z M 926.52357,1021.8053 c 0.0994,-123.87242 1.44855,-236.20425 2.99814,-249.62635 2.10936,-18.27086 5.1487,-27.17442 12.094,-35.42843 13.77829,-16.37457 97.04529,-69.95431 220.81839,-142.08982 130.943,-76.31411 162.1838,-95.85144 162.1931,-101.43218 0.012,-7.40467 -21.9,-22.92316 -57.8211,-40.94921 -65.8627,-33.05142 -70.309,-34.00812 -158.4387,-34.09079 -71.118,-0.0667 -79.7203,0.61809 -104.529,8.32105 -101.61843,31.55206 -205.78698,135.23549 -223.41117,222.37076 -4.70691,23.27126 -9.99495,181.29298 -12.30378,367.67207 l -1.83193,147.8807 74.61897,42.295 c 41.04045,23.2622 77.05201,41.8461 80.02568,41.2973 4.73531,-0.8737 5.42913,-28.9643 5.5874,-226.2201 z m 151.20603,-62.30807 c 25.7718,-14.47276 97.1399,-55.2876 158.5957,-90.69971 112.9591,-65.08932 231.3775,-128.08369 240.775,-128.08369 9.6495,0 123.3508,60.55528 256.4617,136.58691 73.2532,41.8415 135.3349,76.07545 137.9593,76.07545 19.8284,0 12.6556,-123.4048 -10.9532,-188.44632 -41.3936,-114.03823 -156.5411,-197.22616 -287.5777,-207.75948 -103.9097,-8.35275 -138.4482,5.16123 -404.7825,158.38033 l -138.1958,79.50252 -2.2735,16.58673 c -3.2108,23.42562 -2.8388,174.17675 0.4299,174.17379 1.4868,-10e-4 23.7893,-11.84378 49.5611,-26.31653 z"
     id="path1" />
  <path
     style="fill:#d3c6aa;fill-opacity:1;stroke-width:3.60445"
     d="m 1261.5564,2097.2224 c -3.9649,-0.8424 -19.9818,-3.9886 -35.593,-6.9916 -73.7896,-14.1941 -130.7659,-39.7258 -202.4318,-90.7117 -27.68205,-19.6941 -55.84449,-37.6747 -62.58326,-39.957 -7.31439,-2.4773 -37.09408,-4.1784 -73.89116,-4.2211 -33.90137,-0.039 -72.99286,-1.6878 -86.86998,-3.6634 -60.13641,-8.5614 -134.84162,-37.6391 -180.6116,-70.2998 -31.73452,-22.6453 -83.8641,-72.9176 -111.74261,-107.7614 -39.63508,-49.5378 -68.08426,-115.2862 -82.51163,-190.6912 -7.02618,-36.7226 -7.02425,-129.0214 0.003,-160.9709 10.28682,-46.7667 7.25489,-59.0397 -27.22031,-110.1851 -36.51115,-54.1659 -61.30182,-116.372 -68.09472,-170.8672 -4.87202,-39.0852 -4.86407,-128.3497 0.0141,-158.69023 5.33469,-33.17969 26.44848,-94.38277 43.52108,-126.15564 24.72225,-46.00922 62.32451,-92.62693 102.24206,-126.7555 48.89112,-41.80073 117.552,-82.2062 161.05083,-94.77503 26.51477,-7.66134 35.31517,-17.02433 68.87327,-73.27612 32.85014,-55.06507 65.67363,-96.71186 101.82231,-129.19317 69.42763,-62.38405 136.88193,-97.9348 218.66682,-115.24496 40.7254,-8.61972 116.5835,-8.56584 157.8606,0.11213 84.8259,17.83353 128.2856,38.67775 224.2947,107.57666 16.8392,12.08429 33.2295,20.86632 41.4511,22.20982 7.4794,1.22219 49.2828,3.7047 92.8967,5.5167 86.3547,3.58772 102.6905,6.65094 167.1384,31.34097 48.0073,18.39162 91.5957,48.87382 143.2954,100.20929 72.8274,72.31433 105.6969,133.43757 128.0062,238.03696 7.303,34.24048 6.3142,137.78222 -1.6618,174.03037 -3.6546,16.60885 -5.5441,34.51755 -4.2592,40.36795 1.2703,5.7835 13.6953,28.0339 27.611,49.4453 32.2015,49.5467 43.1088,71.1626 55.1102,109.2166 15.9542,50.5877 20.8782,94.0667 18.9816,167.6068 -1.4153,54.8772 -3.1246,70.3975 -11.0864,100.6672 -20.6513,78.5128 -73.5617,160.641 -139.2619,216.1642 -48.1409,40.6838 -106.3955,74.9339 -157.1566,92.3983 -11.564,3.9786 -25.6688,11.6606 -31.344,17.0711 -5.6752,5.4105 -23.4011,31.5548 -39.3909,58.0983 -59.0985,98.1055 -130.3033,165.2586 -220.4202,207.8779 -67.8281,32.0782 -170.7088,52.2379 -216.7087,42.4645 z m 106.8051,-111.2309 c 38.6496,-6.7609 66.1234,-16.0856 96.3566,-32.7039 68.2103,-37.4931 134.559,-111.6248 155.1722,-173.3745 10.6897,-32.0226 14.2051,-83.779 16.4261,-241.8333 1.0785,-76.7549 2.8115,-175.4785 3.8511,-219.3858 l 1.8901,-79.8315 -69.5016,-37.9721 c -80.4972,-43.9795 -88.4144,-47.7772 -92.0447,-44.1516 -1.4784,1.4765 -3.4991,112.4415 -4.4903,246.589 -2.0787,281.3262 1.6146,255.4677 -41.0889,287.6776 -22.5292,16.9931 -57.4647,38.2788 -276.1024,168.2255 -85.1864,50.6303 -87.8296,53.8332 -60.5433,73.361 29.4432,21.0716 90.7275,48.2467 127.2255,56.4153 18.1876,4.0706 113.8898,2.0502 142.8496,-3.0157 z M 950.69394,1840.714 c 44.68696,-12.0985 119.72936,-51.0452 314.83656,-163.3991 l 112.1075,-64.558 2.3337,-32.8772 c 2.9234,-41.1847 2.9637,-138.987 0.062,-149.8154 -1.365,-5.0937 -4.9443,-8.11 -9.6239,-8.11 -4.0977,0 -48.1081,24.1368 -97.8007,53.6373 -162.8517,96.6785 -326.27865,184.2562 -343.83659,184.2562 -11.34604,0 -103.106,-47.4575 -231.31184,-119.6325 -134.25211,-75.5789 -160.1213,-89.4254 -167.07128,-89.4254 -5.22168,0 -5.94041,5.7908 -5.92768,47.7589 0.0306,100.9507 20.06667,167.0988 69.40713,229.1446 43.13353,54.2407 119.11848,103.3363 184.69188,119.3337 7.92978,1.9345 43.61381,3.0084 79.29783,2.3864 52.052,-0.9073 70.40739,-2.6274 92.83559,-8.6995 z m 833.75696,-182.626 c 32.4506,-14.3512 66.1745,-38.75 95.5397,-69.1217 54.2264,-56.0852 84.4329,-113.7646 98.5494,-188.1805 22.0482,-116.2289 -28.6494,-252.659 -119.1485,-320.6353 -38.4912,-28.9118 -303.7326,-185.88558 -372.6136,-220.51833 l -29.1444,-14.65345 -39.8179,20.68827 c -48.7473,25.32772 -108.9486,65.67861 -110.5262,74.08187 -1.4832,7.90051 7.4809,13.60581 175.9405,111.97914 171.8354,100.3447 236.5915,139.3999 246.914,148.9167 7.4369,6.8566 8.4109,11.8 10.2973,52.2645 1.1459,24.5804 3.3787,125.7917 4.9618,224.914 1.583,99.1223 4.1624,182.2499 5.732,184.7279 4.1122,6.4923 10.4697,5.6406 33.3159,-4.4631 z m -781.6077,-126.2187 c 56.3922,-28.7154 96.1148,-55.3716 97.602,-65.4965 1.1835,-8.0583 10.1394,-2.5117 -255.20241,-158.0526 -181.7938,-106.5658 -175.04859,-101.9367 -177.80156,-122.0218 -1.24576,-9.0888 -3.97951,-108.6029 -6.075,-221.14259 -2.0955,-112.53962 -4.63705,-209.88903 -5.64789,-216.33198 -2.30316,-14.67997 -6.53959,-14.73112 -34.95516,-0.4219 -47.20028,23.76859 -95.89874,62.38919 -124.07246,98.39643 -100.10443,127.93778 -96.16299,328.73174 8.67555,441.96984 25.17429,27.1913 64.84218,54.9821 157.85195,110.589 170.90654,102.1785 268.44756,155.7636 283.75608,155.8843 5.4,0.043 30.54102,-10.475 55.8689,-23.3722 z m 229.0665,-130.1426 c 14.3232,-7.1603 56.4548,-30.0014 93.6256,-50.7579 l 67.5834,-37.7391 v -103.9386 c 0,-57.1662 0.8446,-106.1394 1.8768,-108.8294 2.0305,-5.2915 -4.078,-9.0683 -113.5711,-70.2194 -42.191,-23.5633 -70.5091,-37.21719 -77.1882,-37.21719 -11.2352,0 -28.0818,8.57959 -129.2619,65.83019 l -64.031,36.2305 0.9531,108.4072 0.9532,108.4072 66.6822,38.2308 c 78.2635,44.8706 115.3725,64.5595 121.7401,64.5914 2.5275,0.013 16.3145,-5.8354 30.6378,-12.9957 z M 926.05831,1230.0175 c 1.12001,-10.4079 2.51781,-119.4874 3.10624,-242.39906 0.94616,-197.6479 1.75204,-225.0165 6.97294,-236.80762 9.67841,-21.85823 55.88075,-52.85943 246.12111,-165.14415 132.9951,-78.49715 142.3756,-84.66797 142.3756,-93.65968 0,-9.19367 -22.9035,-24.49353 -72.807,-48.63611 -26.95,-13.03798 -48.6608,-20.94054 -64.162,-23.35441 -36.5466,-5.69112 -145.4514,-4.57069 -172.361,1.77327 -53.82719,12.6898 -118.79555,53.91136 -167.14927,106.05405 -45.47432,49.03763 -66.43327,91.72062 -71.55883,145.72986 -4.34023,45.73376 -11.37593,346.71855 -9.99067,427.39665 l 1.14175,66.494 30.6378,17.7298 c 45.79731,26.5026 116.55912,63.6305 121.3907,63.6924 2.47215,0.032 5.09701,-7.8518 6.28263,-18.869 z M 1046.8497,978.73084 c 7.6386,-3.89691 76.9145,-43.05418 153.9465,-87.01606 149.0108,-85.04008 266.2168,-147.39651 277.0485,-147.39651 8.8714,0 96.0959,45.75965 221.235,116.06413 188.1491,105.70415 173.6713,98.80484 180.5125,86.02185 2.0522,-3.83455 3.6992,-23.70406 3.6599,-44.15447 -0.2542,-132.38391 -47.4905,-226.81202 -145.2734,-290.40988 -54.868,-35.68611 -113.4304,-53.86075 -184.4621,-57.24722 -90.5288,-4.31601 -122.4813,8.97015 -393.5599,163.64548 -91.3873,52.14488 -131.0277,76.63057 -132.4142,81.79163 -3.8099,14.18184 -2.2667,185.78642 1.6707,185.78642 2.0614,0 9.9978,-3.18842 17.6365,-7.08537 z"
     id="path2" />
  <path
     style="fill:#d3c6aa;fill-opacity:1;stroke-width:3.60445"
     d="m 1242.8367,2094.0682 c -89.098,-16.2956 -149.3901,-42.7799 -226.8972,-99.6686 -52.38136,-38.4469 -45.6303,-36.5496 -140.05892,-39.3613 -72.75774,-2.1665 -87.14409,-3.6012 -117.56696,-11.7245 -84.91906,-22.6745 -133.86604,-50.8291 -200.66778,-115.4252 -74.8754,-72.4031 -112.70881,-142.4416 -132.32448,-244.9634 -7.02618,-36.7226 -7.02425,-129.0214 0.003,-160.9709 2.83438,-12.8859 5.21041,-30.8745 5.28005,-39.9747 0.13107,-17.1282 -0.35773,-18.0896 -49.76226,-97.8845 -17.43578,-28.1611 -34.25765,-68.6957 -44.50598,-107.2432 -9.14778,-34.408 -13.25994,-149.6941 -6.81409,-191.03569 9.0709,-58.17786 38.11049,-127.69124 74.85523,-179.18437 50.35862,-70.57128 147.88772,-144.02482 224.93619,-169.40952 35.00437,-11.53269 43.21753,-19.74381 76.96801,-76.94898 57.31564,-97.14672 127.30265,-164.22942 216.45651,-207.47398 104.04768,-50.46892 205.10018,-56.91348 320.69078,-20.45187 49.1045,15.48939 86.4904,36.15761 158.7006,87.73513 15.8596,11.328 34.5126,22.38105 41.4512,24.56234 6.9385,2.18128 49.9216,5.52541 95.5178,7.43139 72.0619,3.01228 87.3497,4.71232 116.9143,13.00118 80.9908,22.7069 129.6296,52.02884 197.124,118.83628 60.9684,60.3479 88.7698,104.25814 111.4662,176.05209 14.9643,47.3359 20.0336,76.74347 22.221,128.9067 1.706,40.68151 0.703,57.03972 -5.8866,96.00822 -9.3335,55.19418 -9.5794,54.13118 24.1156,104.24278 35.9741,53.5011 51.8155,90.1149 64.5426,149.1748 5.2417,24.3237 6.5545,46.4561 6.511,109.7647 -0.052,75.1605 -0.566,81.1377 -9.8589,114.5619 -17.2125,61.9094 -45.6074,114.1449 -91.9901,169.2255 -50.0158,59.395 -135.049,116.8877 -208.9341,141.2646 -23.4007,7.7206 -33.5097,19.1288 -69.2896,78.1941 -82.9993,137.0151 -200.6163,219.5028 -346.1689,242.7767 -40.505,6.4768 -71.547,6.4717 -107.0286,-0.018 z m 123.2487,-107.909 c 68.1559,-11.0693 116.9747,-35.9521 171.5562,-87.4415 47.9486,-45.2323 82.1776,-101.9954 89.7037,-148.7588 4.5571,-28.3149 10.0059,-198.9824 12.1047,-379.1396 l 1.5404,-132.235 -68.968,-37.8181 c -79.9031,-43.8143 -87.8812,-47.6526 -91.5111,-44.0272 -1.4784,1.4767 -3.4991,112.4417 -4.4903,246.589 -2.0242,273.9451 -0.027,255.1571 -29.6808,279.2512 -23.4545,19.0573 -65.532,45.2759 -197.3994,123.0004 -150.7372,88.8466 -165.8045,98.5364 -165.8045,106.6294 0,16.0934 69.3031,55.9894 124.3534,71.587 31.7105,8.9847 110.5894,10.1601 158.5957,2.3632 z m -421.14073,-143.933 c 43.5419,-10.4459 134.31753,-57.3398 329.28913,-170.1078 l 103.4372,-59.8262 2.3172,-32.6449 c 2.91,-40.9962 2.9396,-138.783 0.045,-149.583 -1.3404,-5.0019 -4.9518,-8.11 -9.4231,-8.11 -3.9874,0 -47.9977,24.1261 -97.8008,53.6136 -166.9593,98.8534 -326.42193,184.2799 -343.98906,184.2799 -10.41548,0 -99.69143,-45.6032 -204.32672,-104.3725 C 578.24157,1473.3315 544.04943,1454.801 534.35925,1452.4319 l -9.91223,-2.4236 0.0212,46.3475 c 0.0532,115.9325 26.83765,190.4844 91.76122,255.4079 48.39334,48.3934 104.81236,80.6278 169.53993,96.8651 17.3255,4.3461 133.91948,-0.3437 159.17526,-6.4026 z m 848.45873,-188.7779 c 86.3165,-43.363 152.5245,-127.8712 180.8687,-230.8617 10.9799,-39.8964 11.0027,-116.5549 0.047,-158.2138 -22.2147,-84.471 -67.719,-152.9869 -129.3249,-194.7245 -50.2831,-34.0664 -305.2654,-183.39776 -361.0407,-211.44482 l -26.3097,-13.23009 -38.5703,20.08888 c -48.5642,25.29399 -110.2982,66.5334 -111.8034,74.68659 -1.4315,7.7541 5.4503,12.16804 156.1353,100.14344 193.8935,113.202 268.3589,158.7381 272.6272,166.7135 2.6705,4.9898 5.0263,64.6434 6.9987,177.2162 3.834,218.825 5.5312,274.4547 8.5212,279.2925 4.1316,6.6852 13.703,4.4745 41.8509,-9.6662 z M 995.77141,1535.6058 c 48.33239,-24.1953 105.38709,-61.1966 105.38709,-68.3461 0,-8.4591 -14.5519,-17.6718 -185.629,-117.5206 -89.21006,-52.0672 -180.83095,-106.2174 -203.60197,-120.3337 -39.46702,-24.4666 -41.5175,-26.3364 -43.87686,-40.0109 -1.36127,-7.8896 -4.2584,-105.9879 -6.43808,-217.99607 -2.17968,-112.00819 -4.83698,-210.54476 -5.90512,-218.97015 -2.46181,-19.41849 -6.27451,-19.49177 -40.60109,-0.78069 -103.91254,56.64172 -160.85384,131.49826 -184.98018,243.17974 -2.73763,12.67257 -4.53159,43.26577 -4.33292,73.89117 0.40328,62.166 9.73766,104.2287 33.79755,152.2989 34.49511,68.9191 63.92047,94.5801 205.67677,179.3644 163.04182,97.5152 267.16149,154.8008 281.50683,154.8824 5.29003,0.03 27.33865,-8.8163 48.99698,-19.6584 z m 252.84239,-142.7825 c 22.978,-12.0571 64.9147,-35.0513 93.1927,-51.0983 l 51.4145,-29.1762 -0.9522,-109.9499 -0.9523,-109.9499 -16.22,-9.5257 c -67.8759,-39.8622 -157.1254,-87.29328 -167.3916,-88.95926 -13.8336,-2.24489 -18.8255,0.19774 -132.7303,64.94676 l -64.0306,36.3981 0.9528,108.0052 0.9528,108.0052 39.6489,23.1596 c 62.4061,36.4524 143.6829,80.0468 149.2575,80.0571 2.7937,0.01 23.8797,-9.8556 46.8578,-21.9127 z M 925.01529,1236.0279 c 1.25225,-5.7838 2.55991,-100.537 2.9059,-210.5628 0.71599,-227.70333 2.6723,-269.34259 13.34067,-283.94997 3.94154,-5.39683 28.96025,-24.44136 55.59708,-42.32114 43.66896,-29.31245 76.58156,-49.34814 241.26856,-146.87287 71.2095,-42.16901 86.5067,-52.86589 86.5067,-60.49145 0,-14.91357 -95.9386,-65.14293 -136.969,-71.71109 -30.3963,-4.86585 -136.9895,-4.88905 -163.2447,-0.0355 -97.39422,18.0043 -213.99869,121.97149 -241.7676,215.5655 -8.12262,27.37697 -13.2365,158.45379 -14.14915,362.66485 l -0.75657,169.29057 34.24224,19.4266 c 61.81818,35.0712 113.47567,61.8188 117.14453,60.6558 1.98244,-0.6284 4.62904,-5.8747 5.88134,-11.6585 z M 1130.0798,931.46602 c 225.0386,-128.16328 334.8014,-187.14775 348.259,-187.14775 8.7684,0 97.6318,46.87032 235.5757,124.25253 66.4119,37.25502 129.3971,71.97987 139.967,77.16631 18.8526,9.25059 19.3153,9.29695 24.33,2.43891 6.9764,-9.54072 6.7484,-72.83938 -0.4215,-117.04998 -14.0836,-86.84143 -49.827,-149.39145 -114.7245,-200.76469 -52.6771,-41.69948 -111.6517,-65.41089 -183.4491,-73.75777 -75.2784,-8.75159 -122.3683,1.90479 -215.2023,48.69991 -96.858,48.82354 -330.0017,183.09829 -335.3863,193.15949 -2.0755,3.87809 -3.5627,44.3716 -3.5627,97.00511 0,70.77518 0.9947,90.34812 4.5913,90.34812 2.5252,0 47.5357,-24.45757 100.0234,-54.35019 z"
     id="path3" />
  <path
     style="fill:#d3c6aa;fill-opacity:1;stroke-width:3.60445"
     d="m 1230.9186,2091.9322 c -79.7925,-16.6525 -136.3281,-41.3986 -201.9473,-88.3942 -68.87451,-49.3271 -57.48612,-45.7028 -152.94264,-48.6725 -103.00508,-3.2044 -140.81089,-11.3384 -207.40377,-44.6228 -39.31841,-19.6521 -68.63015,-41.4034 -110.97905,-82.3541 -74.63795,-72.1735 -112.97765,-142.8126 -132.01486,-243.2313 -7.70101,-40.6217 -7.65357,-127.3168 0.0902,-164.7616 7.47309,-36.136 5.18754,-54.9204 -9.53058,-78.329 -52.0535,-82.7893 -65.3829,-110.2838 -79.85403,-164.7148 -9.01229,-33.8983 -13.26152,-149.7203 -6.96963,-189.97227 5.10829,-32.67997 19.21756,-77.92179 35.0476,-112.38124 46.26623,-100.7142 151.71053,-195.85386 262.4724,-236.8221 39.76555,-14.70836 46.1316,-21.00386 80.95652,-80.05943 56.01455,-94.98861 126.0137,-161.70515 214.89496,-204.8175 149.89328,-72.70658 310.95508,-54.2517 458.77858,52.56805 42.1964,30.49182 54.6916,37.73512 71.0751,41.20124 5.9473,1.25823 46.4973,3.79287 90.1112,5.63252 68.2904,2.88054 84.019,4.66822 113.3098,12.87848 37.7253,10.57446 87.9549,31.34397 110.3348,45.6225 51.9851,33.16691 124.9553,106.0522 156.3342,156.15242 55.2429,88.202 77.1596,209.33502 57.9208,320.12765 -8.7799,50.56208 -7.9301,54.05278 25.1118,103.15298 56.9735,84.6623 74.9791,154.8425 71.261,277.7524 -2.0877,69.0141 -7.2594,95.9674 -27.9502,145.669 -23.913,57.4416 -74.6147,126.2457 -122.2816,165.9404 -50.3864,41.9596 -114.5847,79.3008 -159.3199,92.6693 -21.9386,6.5561 -40.1212,26.5109 -69.7295,76.526 -80.075,135.2646 -197.5842,219.544 -340.0696,243.9031 -50.8101,8.6864 -82.7065,8.5194 -126.7063,-0.6632 z m 161.2121,-110.8589 c 54.7717,-13.8327 98.6588,-38.4642 143.9508,-80.792 47.4946,-44.3861 83.6689,-104.0452 91.1483,-150.3224 4.3727,-27.0556 10.0232,-205.5723 12.2256,-386.2451 l 1.5228,-124.9227 -73.2846,-40.2703 c -40.3066,-22.1487 -76.357,-41.0738 -80.112,-42.0558 -6.2849,-1.6435 -7.0153,1.2874 -9.1939,36.8948 -1.3017,21.2742 -2.3761,125.6105 -2.3876,231.8585 -0.012,107.522 -1.5701,202.6388 -3.5148,214.5142 -2.4981,15.2547 -6.3447,24.3499 -13.4958,31.9105 -15.5968,16.4899 -78.1872,56.3589 -219.0598,139.5373 -135.2198,79.8407 -152.2777,90.8055 -155.8835,100.202 -5.3713,13.9974 70.3817,58.0489 125.2457,72.8323 23.5612,6.3487 35.1351,7.0957 90.1112,5.8156 48.1589,-1.1214 70.0904,-3.2398 92.7276,-8.9569 z m -445.9634,-139.575 c 38.69921,-9.3811 129.9171,-55.9144 288.3557,-147.0999 74.3418,-42.7856 137.4476,-79.2174 140.2353,-80.9596 6.9899,-4.3685 8.1885,-181.3918 1.2754,-188.3533 -5.8819,-5.9231 -13.0875,-2.3941 -99.5461,48.753 -179.3834,106.1196 -329.1454,186.0093 -348.69491,186.0093 -10.49611,0 -105.69532,-49.4265 -233.93667,-121.4576 -126.49923,-71.0526 -157.63018,-87.6003 -164.80077,-87.6003 -4.91904,0 -5.3371,7.4842 -3.4731,62.1767 3.03626,89.0879 16.0087,137.3055 51.17027,190.1961 44.60497,67.0954 131.89697,128.4763 205.17732,144.274 25.04089,5.3983 133.67466,1.4703 164.23756,-5.9384 z m 834.9935,-181.8923 c 69.0407,-29.5943 142.8467,-106.9023 174.3839,-182.658 20.9581,-50.3436 26.2237,-76.9318 26.2386,-132.4893 0.011,-42.6815 -1.3992,-55.7485 -9.1485,-84.7459 -22.9951,-86.0459 -68.019,-150.274 -137.2482,-195.7894 -61.2385,-40.2618 -297.5995,-178.59048 -351.7615,-205.86601 l -26.0533,-13.12022 -39.7267,20.87839 c -48.505,25.49177 -108.9591,65.79925 -110.4724,73.65684 -1.3913,7.2245 23.7175,23.37992 156.0327,100.3942 176.3984,102.6729 268.4671,158.9659 272.5887,166.6672 2.6254,4.9055 5.0335,63.3871 7.001,170.0213 4.0343,218.6405 5.9667,282.3677 8.6963,286.7843 3.3669,5.4478 10.0156,4.6055 29.4694,-3.7334 z M 997.34601,1534.3937 c 46.36159,-23.5148 98.88699,-56.9399 101.92709,-64.8625 3.8577,-10.0528 15.5664,-2.6585 -264.84365,-167.2531 -62.44705,-36.6551 -125.05629,-74.0276 -139.13165,-83.0501 -24.36901,-15.6209 -25.69877,-17.1867 -27.83562,-32.7767 -1.23422,-9.0047 -3.95598,-106.8969 -6.04833,-217.53814 -4.13374,-218.58761 -4.87231,-231.80378 -12.9541,-231.80378 -7.43214,0 -38.58514,16.2057 -66.47966,34.58251 -79.76599,52.54951 -125.54066,117.18334 -148.3098,209.41338 -6.22631,25.22063 -7.83682,42.48493 -7.83682,84.00873 0,62.9576 7.72427,99.5889 31.49653,149.3681 35.91805,75.2126 63.37289,99.3297 218.50378,191.9395 162.74543,97.1555 257.15191,148.8972 271.67387,148.8972 4.72053,0 27.14775,-9.4163 49.83836,-20.9251 z M 1245.025,1394.6074 c 20.987,-11.0758 62.9166,-34.0929 93.177,-51.1491 l 55.0189,-31.0111 -0.9522,-109.8086 -0.9522,-109.8085 -46.8578,-26.9006 c -74.8188,-42.9527 -133.2926,-72.90439 -142.3293,-72.90439 -8.8756,0 -17.1787,4.31614 -123.5505,64.22519 l -67.6352,38.0924 0.953,108.1687 0.9529,108.1687 43.2533,24.9092 c 73.7222,42.4561 140.2378,78.1561 145.6192,78.1561 2.8297,0 22.316,-9.0621 43.3029,-20.138 z M 923.42677,1244.4353 c 1.60384,-2.4781 3.8139,-111.5577 4.91124,-242.3991 1.75093,-208.76929 2.71184,-239.52563 7.8489,-251.22538 9.37902,-21.36092 58.52126,-54.59504 234.90509,-158.86273 123.9448,-73.26877 153.5422,-92.22523 153.5422,-98.34008 0,-11.9928 -51.2598,-43.44594 -106.6757,-65.45642 -24.6857,-9.80485 -25.585,-9.88502 -111.3933,-9.93107 l -86.5067,-0.0464 -27.03339,10.31849 c -72.30726,27.59932 -140.78598,83.45748 -183.27246,149.49553 -20.66127,32.11444 -29.12639,57.25044 -33.01115,98.02189 -4.10309,43.06293 -11.71982,375.89297 -10.13751,442.97967 l 1.14319,48.469 34.24224,19.4576 c 46.16785,26.2342 112.95789,61.9066 116.03068,61.9717 1.36983,0.029 3.80284,-1.9747 5.40667,-4.4527 z M 1164.2025,912.1318 c 209.7221,-119.14318 300.491,-167.81353 312.9681,-167.81353 11.5709,0 72.7665,32.27249 256.5683,135.30528 130.6726,73.25043 137.3955,76.56761 143.2786,70.69546 7.1604,-7.14708 7.8473,-74.21819 1.1906,-116.24734 -10.3631,-65.42969 -30.7827,-112.82614 -68.6204,-159.27579 -32.8413,-40.31616 -96.9186,-83.29668 -151.356,-101.52351 -49.8368,-16.68647 -120.4791,-23.74859 -164.1885,-16.41393 -55.1485,9.25421 -126.8758,43.13143 -297.3668,140.44819 -141.0836,80.53087 -166.4782,96.39859 -168.9322,105.5563 -3.0535,11.39499 -2.8364,177.59001 0.236,180.66241 3.7968,3.79685 4.7189,3.3136 136.2223,-71.39354 z"
     id="path4" />
  <path
     style="fill:#d3c6aa;fill-opacity:1;stroke-width:3.60445"
     d="m 1256.1497,2097.4001 c -34.507,-6.5705 -101.1333,-25.0221 -123.1886,-34.1159 -36.8436,-15.1913 -59.1194,-28.1599 -111.6143,-64.9799 -25.06324,-17.5794 -50.20425,-33.8201 -55.86897,-36.0904 -5.73053,-2.2968 -46.27601,-5.4304 -91.39947,-7.0641 -81.80361,-2.9616 -101.70408,-5.842 -151.38677,-21.9119 -36.95837,-11.9542 -89.3294,-40.3964 -120.86916,-65.643 -35.69963,-28.5765 -90.18137,-85.1191 -109.67253,-113.8211 -30.70793,-45.2194 -54.49619,-105.6982 -66.51892,-169.1165 -7.68576,-40.5412 -7.61043,-121.7802 0.15445,-166.5844 3.34718,-19.3136 4.93636,-40.0953 3.60768,-47.1778 -1.30611,-6.9621 -13.15557,-29.5455 -26.33212,-50.1853 -44.80958,-70.1896 -65.77036,-121.9211 -73.10647,-180.4276 -5.72466,-45.6551 -4.72386,-135.6474 1.86316,-167.53722 6.45419,-31.24677 23.53305,-81.4308 36.64535,-107.67774 48.06691,-96.21562 149.62649,-186.16845 255.10627,-225.95144 42.88672,-16.17525 47.74522,-20.91282 84.52288,-82.41898 57.09851,-95.49033 122.11343,-157.65264 211.04177,-201.78211 104.49295,-51.85317 202.83355,-59.47831 317.19135,-24.5944 46.5725,14.20657 94.2164,38.81012 145.9801,75.38479 22.7981,16.10848 45.8552,31.58574 51.2381,34.3939 10.9182,5.69594 77.5218,12.10024 127.182,12.22926 85.723,0.22271 177.0393,32.54407 243.3001,86.11587 35.1419,28.41215 81.6624,75.79842 103.7007,105.6306 64.1251,86.80299 92.9948,219.46307 73.9781,339.93926 -3.7551,23.78931 -5.7728,48.33931 -4.4837,54.55531 1.289,6.2161 13.151,27.7965 26.36,47.9565 43.0455,65.6974 59.1264,105.6485 68.8302,171.0004 6.4496,43.4355 7.2708,126.323 1.6518,166.722 -19.0876,137.2343 -133.1996,276.6199 -274.3895,335.1611 -66.1155,27.4134 -55.222,16.6119 -121.8032,120.7741 -66.1285,103.4541 -177.7775,181.4269 -299.1691,208.9322 -29.6999,6.7295 -104.2507,11.7692 -122.5512,8.2845 z m 136.8813,-116.6864 c 39.5831,-9.7934 75.7674,-27.4021 111.2481,-54.1376 64.1245,-48.3193 108.6655,-111.3882 121.334,-171.806 5.4382,-25.9352 11.1167,-191.3385 13.8599,-403.7066 l 1.4511,-112.3419 -76.431,-41.7482 c -42.037,-22.9615 -78.21,-41.7482 -80.3845,-41.7482 -5.6793,0 -6.7041,35.9642 -7.4999,263.2126 -0.3855,110.0741 -2.2572,209.6963 -4.1591,221.3827 -2.4723,15.1903 -6.3097,24.2627 -13.4601,31.8225 -15.3874,16.2685 -77.4403,55.9233 -215.4553,137.6861 -171.1157,101.3722 -168.1013,99.1569 -154.8477,113.802 17.1198,18.917 87.7785,53.3592 129.6165,63.1808 32.5244,7.6352 134.4389,4.3699 174.728,-5.5982 z M 903.79811,1847.2046 c 69.68762,-6.6084 110.58059,-25.9535 367.31639,-173.765 l 106.8782,-61.5335 2.6153,-55.8031 c 3.1425,-67.0515 0.8523,-125.6222 -5.1465,-131.621 -5.2561,-5.2561 -16.7753,0.6371 -115.7073,59.1953 -151.203,89.4975 -313.56434,176.1705 -330.01402,176.1705 -12.60555,0 -81.37273,-35.2383 -225.02688,-115.3102 -130.81607,-72.9161 -170.16431,-93.7477 -177.07674,-93.7477 -6.22682,0 -1.90265,109.7447 5.75192,145.9801 13.83326,65.4841 39.83494,111.6482 90.02491,159.8326 46.91253,45.0379 94.66642,73.3155 146.94164,87.0121 30.19161,7.9104 75.13282,9.1194 133.44308,3.5899 z M 1779.1439,1659.71 c 46.2157,-18.2165 110.3492,-72.7036 141.9644,-120.6112 57.8715,-87.6949 74.8331,-177.1408 52.1341,-274.9267 -19.2483,-82.9206 -66.8347,-152.1257 -136.7767,-198.915 -54.5748,-36.509 -262.7179,-159.06989 -339.7191,-200.03674 l -38.7478,-20.61495 -38.7479,20.65406 c -35.5211,18.93409 -84.2917,49.51068 -104.7047,65.64422 -4.8116,3.80284 -7.4229,8.79748 -6.2278,11.91187 2.577,6.71566 35.635,27.33684 158.6915,98.98994 169.4523,98.6684 264.9517,157.1935 269.0749,164.8978 2.6051,4.8677 5.0109,61.4722 6.916,162.721 4.0925,217.5087 6.2599,289.9821 8.795,294.084 3.0732,4.9724 6.1976,4.5385 27.3481,-3.7983 z M 996.99382,1534.2682 c 46.30428,-23.4041 87.79758,-49.3137 98.72668,-61.6479 l 7.1776,-8.1003 -8.9798,-7.2817 c -9.5382,-7.7346 -57.831,-36.5721 -243.26884,-145.2655 -63.43827,-37.184 -129.91523,-76.7303 -147.7266,-87.8807 -30.14654,-18.8726 -32.55679,-21.2675 -34.88064,-34.658 -1.37299,-7.9114 -4.28149,-105.2165 -6.46334,-216.23345 -4.21633,-214.53538 -5.15115,-231.86095 -12.66591,-234.74461 -13.338,-5.11828 -95.62171,49.60285 -132.27342,87.96573 -68.87165,72.08717 -101.58504,173.74533 -89.56957,278.34123 5.56706,48.4617 12.3749,72.3529 32.35349,113.54 34.36646,70.8487 64.705,97.0888 218.21254,188.7343 170.75728,101.9437 255.24796,148.2728 270.41724,148.2787 4.01092,0 26.03417,-9.47 48.94057,-21.0478 z m 259.15588,-145.7436 c 26.763,-14.3929 68.5526,-37.3965 92.8656,-51.1191 l 44.2056,-24.9501 -0.9522,-109.683 -0.9522,-109.683 -46.8578,-27.0268 c -70.7314,-40.7967 -133.0908,-73.03749 -141.2672,-73.03749 -8.6277,0 -26.0246,8.95279 -120.9563,62.24669 l -71.1879,39.9642 v 107.2293 107.2292 l 20.7256,12.5812 c 45.5698,27.6626 164.8066,92.4681 170.089,92.4438 3.0953,-0.014 27.5248,-11.802 54.2878,-26.1949 z M 924.78716,1210.8083 c 1.12686,-19.6672 2.4431,-115.2367 2.92501,-212.37652 1.00957,-203.49918 3.10397,-242.69671 13.73085,-256.97832 13.80319,-18.55032 83.28668,-63.257 272.64308,-175.42253 49.2243,-29.15806 94.6403,-57.65424 100.9245,-63.32483 l 11.4258,-10.31017 -9.0111,-9.07495 c -12.4285,-12.5166 -60.8389,-39.58488 -95.5178,-53.40801 l -28.8356,-11.49397 -84.7045,-0.15158 c -95.5836,-0.17105 -99.2174,0.51245 -155.35003,29.22082 -72.39362,37.02483 -145.24483,114.45875 -166.26564,176.72455 -3.63519,10.76786 -8.13707,36.11413 -10.0041,56.32505 -3.71287,40.19178 -10.77798,314.83293 -10.79316,419.56056 l -0.01,65.6222 26.13224,15.2627 c 51.33755,29.984 123.51437,67.9051 127.05675,66.7545 1.98244,-0.6439 4.52639,-17.2622 5.65321,-36.9295 z M 1136.2985,927.74176 c 239.6484,-135.9487 327.9193,-183.42349 341.0432,-183.42349 9.8954,0 103.0428,48.85821 243.1844,127.55644 147.3822,82.76426 150.5724,84.36269 156.4914,78.41125 7.8503,-7.89335 5.2674,-103.82192 -3.896,-144.69209 -9.6908,-43.2228 -36.2735,-97.75988 -63.6053,-130.49291 -82.8202,-99.18657 -240.459,-145.71837 -361.475,-106.70011 -34.5485,11.13922 -144.9031,67.96772 -260.376,134.08396 -128.5084,73.57995 -157.6628,91.98963 -160.1105,101.10265 -2.7674,10.30298 -2.6072,169.47676 0.1778,176.73442 1.247,3.24977 4.4895,5.05589 7.2055,4.01366 2.716,-1.04222 48.3282,-26.50941 101.3605,-56.59378 z"
     id="path6" />
</svg>
